<svg width="557" height="534" viewBox="0 0 557 534" fill="none" xmlns="http://www.w3.org/2000/svg">
<g clip-path="url(#clip0_1_35)">
<path d="M105.445 156.744C105.687 156.822 105.935 156.881 106.187 156.921L104.39 150.246C100.162 151.865 100.968 155.32 105.445 156.744ZM111.163 160.549L112.272 164.674C114.181 164.385 115.575 163.681 115.531 162.239C115.5 161.015 113.657 160.696 111.163 160.549ZM111.163 160.549L112.272 164.674C114.181 164.385 115.575 163.681 115.531 162.239C115.5 161.015 113.657 160.696 111.163 160.549ZM105.445 156.744C105.687 156.822 105.935 156.881 106.187 156.921L104.39 150.246C100.162 151.865 100.968 155.32 105.445 156.744ZM102.091 134.261C96.013 135.896 90.8337 139.878 87.692 145.33C84.5503 150.782 83.7035 157.258 85.3377 163.334C86.9752 169.409 90.9588 174.584 96.4127 177.724C101.867 180.863 108.345 181.708 114.422 180.074C117.431 179.265 120.251 177.871 122.721 175.972C125.191 174.074 127.262 171.707 128.818 169.008C130.373 166.309 131.381 163.33 131.784 160.242C132.187 157.153 131.978 154.016 131.168 151.008C129.534 144.933 125.552 139.755 120.099 136.615C114.646 133.474 108.169 132.627 102.091 134.261ZM113.432 176.399C108.331 177.765 102.896 177.052 98.3197 174.417C93.7433 171.783 90.3995 167.441 89.0217 162.345C87.6551 157.245 88.3678 151.813 91.0035 147.238C93.6392 142.663 97.9827 139.321 103.081 137.944C108.182 136.578 113.617 137.291 118.193 139.926C122.769 142.56 126.113 146.902 127.491 151.997C128.857 157.097 128.144 162.529 125.508 167.103C122.873 171.678 118.53 175.02 113.432 176.399ZM103.632 139.987C99.0752 141.217 95.1928 144.204 92.8369 148.292C90.481 152.381 89.8442 157.237 91.0662 161.794C92.2973 166.348 95.2856 170.229 99.3752 172.584C103.465 174.938 108.322 175.575 112.881 174.355C117.438 173.124 121.32 170.137 123.676 166.048C126.032 161.959 126.669 157.103 125.447 152.545C124.215 147.991 121.226 144.111 117.137 141.757C113.047 139.403 108.19 138.767 103.632 139.987ZM114.857 168.108C114.359 168.314 113.851 168.494 113.333 168.646L114.041 171.271L110.299 172.291L109.503 169.333C106.879 169.497 104.251 169.081 101.805 168.115L102.2 164.157C104.216 164.511 106.251 164.738 108.296 164.837L107.098 160.386C103.384 160.196 99.5363 159.706 98.1178 157.295C95.3965 152.643 98.1484 148.169 101.179 146.618C101.822 146.286 102.486 145.995 103.166 145.747L102.448 143.082L106.19 142.061L106.949 144.877C109.749 144.583 112.575 145.112 115.079 146.4L113.47 149.957C111.758 149.427 109.956 149.247 108.173 149.43L110.214 156.976C112.565 156.826 115.034 156.635 117.113 157.656C121.031 159.655 121.164 165.517 114.864 168.108H114.857ZM111.156 160.549L112.265 164.674C114.174 164.385 115.568 163.681 115.524 162.239C115.5 161.015 113.657 160.696 111.163 160.549H111.156ZM105.438 156.744C105.68 156.822 105.928 156.881 106.18 156.921L104.384 150.246C100.162 151.865 100.968 155.32 105.445 156.744H105.438Z" fill="#F27949"/>
<path d="M469.281 180.136C469.522 180.356 469.779 180.558 470.05 180.741L471.536 172.046C465.771 171.662 464.859 176.109 469.281 180.136ZM473.873 187.616L472.951 192.989C475.333 193.669 477.309 193.604 478.03 191.911C478.646 190.462 476.687 189.106 473.873 187.603V187.616ZM473.873 187.616L472.951 192.989C475.333 193.669 477.309 193.604 478.03 191.911C478.646 190.462 476.687 189.106 473.873 187.603V187.616ZM469.281 180.136C469.522 180.356 469.779 180.558 470.05 180.741L471.536 172.046C465.771 171.662 464.859 176.109 469.281 180.136ZM477.421 152.307C469.506 150.953 461.377 152.797 454.821 157.432C448.265 162.068 443.818 169.116 442.459 177.028C441.787 180.946 441.895 184.959 442.775 188.836C443.655 192.714 445.291 196.379 447.59 199.624C449.888 202.869 452.803 205.63 456.169 207.748C459.535 209.867 463.285 211.301 467.206 211.97C471.125 212.64 475.138 212.532 479.015 211.651C482.892 210.771 486.558 209.136 489.803 206.839C493.048 204.543 495.809 201.63 497.927 198.267C500.046 194.904 501.482 191.156 502.151 187.239C503.505 179.329 501.66 171.205 497.023 164.654C492.385 158.103 485.334 153.662 477.421 152.307ZM468.026 207.196C461.384 206.052 455.466 202.321 451.572 196.821C447.679 191.322 446.126 184.503 447.255 177.861C448.399 171.221 452.132 165.306 457.634 161.414C463.135 157.523 469.957 155.971 476.601 157.101C483.242 158.246 489.158 161.977 493.051 167.475C496.944 172.974 498.497 179.792 497.369 186.433C496.221 193.07 492.488 198.981 486.988 202.87C481.487 206.76 474.668 208.31 468.026 207.182V207.196ZM476.146 159.764C470.207 158.754 464.111 160.141 459.194 163.619C454.277 167.097 450.942 172.383 449.919 178.316C448.915 184.249 450.304 190.339 453.782 195.25C457.26 200.161 462.543 203.495 468.475 204.52C474.413 205.53 480.51 204.145 485.427 200.667C490.345 197.19 493.682 191.904 494.705 185.971C495.717 180.034 494.331 173.939 490.851 169.023C487.372 164.107 482.083 160.772 476.146 159.75V159.764ZM474.105 198.355C473.421 198.327 472.74 198.263 472.064 198.161L471.479 201.585L466.621 200.752L467.281 196.899C464.154 195.685 461.332 193.799 459.015 191.374L461.587 186.994C463.73 188.487 465.966 189.843 468.281 191.054L469.274 185.253C465.073 183.05 460.882 180.414 460.522 176.871C459.841 170.016 465.441 166.33 469.771 166.129C470.694 166.09 471.619 166.109 472.54 166.187L473.135 162.712L478 163.528L477.37 167.197C480.774 168.356 483.765 170.483 485.976 173.318L482.211 176.579C482.211 176.579 480.17 174.515 476.357 173.138L474.673 182.965C477.479 184.049 480.456 185.137 482.296 187.457C485.789 191.84 482.803 198.705 474.118 198.341L474.105 198.355ZM473.86 187.616L472.938 192.989C475.319 193.669 477.295 193.604 478.017 191.911C478.646 190.462 476.687 189.106 473.873 187.603L473.86 187.616ZM469.267 180.136C469.509 180.356 469.766 180.558 470.036 180.741L471.523 172.046C465.771 171.662 464.859 176.109 469.281 180.136H469.267Z" fill="#F27949"/>
<path d="M77.786 72.4692C77.786 72.4692 74.8844 111.451 77.786 113.213C81.3237 115.362 77.786 72.4692 77.786 72.4692Z" fill="#FF7B7B"/>
<path d="M144.557 55.1714C144.557 55.1714 142.959 76.6278 144.557 77.6139C146.507 78.7803 144.557 55.1714 144.557 55.1714Z" fill="#FF7B7B"/>
<path d="M438.561 93.8574C438.561 93.8574 437.071 113.872 438.561 114.777C440.38 115.878 438.561 93.8574 438.561 93.8574Z" fill="#FF7B7B"/>
<path d="M507.512 85.4277C507.512 85.4277 504.431 126.814 507.512 128.681C511.268 130.962 507.512 85.4277 507.512 85.4277Z" fill="#FF7B7B"/>
<path d="M39.2145 151.654H34.4998V167.894H39.2145V151.654Z" fill="#FF7B7B"/>
<path d="M44.9803 162.13V157.417H28.7339V162.13H44.9803Z" fill="#FF7B7B"/>
<path d="M520.585 224.973H515.87V241.213H520.585V224.973Z" fill="#FF7B7B"/>
<path d="M526.348 235.446V230.733H510.101V235.446H526.348Z" fill="#FF7B7B"/>
<path d="M199.219 75.2812H196.178V85.7578H199.219V75.2812Z" fill="#FF7B7B"/>
<path d="M202.937 82.0409V79.001H192.456V82.0409H202.937Z" fill="#FF7B7B"/>
<path d="M405.391 61.166H402.35V71.6426H405.391V61.166Z" fill="#FF7B7B"/>
<path d="M409.112 67.9262V64.8862H398.632V67.9262H409.112Z" fill="#FF7B7B"/>
<path d="M13.9299 235.681L19.1549 239.305C19.1549 239.305 16.9778 247.524 11.7528 251.39C6.52785 255.257 2.39481 255.015 2.39481 255.015L0.0136414 245.834C0.0136414 245.834 5.22157 246.555 13.9299 235.681Z" fill="#585858"/>
<path d="M540.25 182.288L538.468 186.933C538.468 186.933 539.651 189.062 544.094 191.694C548.537 194.325 553.721 195.332 553.721 195.332L556.986 188.773C556.986 188.773 545.727 189.194 540.25 182.288Z" fill="#585858"/>
<path d="M194.892 138.168L188.293 145.411L192.405 149.087L196.838 140.222L194.892 138.168Z" fill="#585858"/>
<path d="M118.504 42.1646L103.186 48.0642L113.963 54.2699L125.311 46.2586L118.504 42.1646Z" fill="#585858"/>
<path d="M541.152 298.221L535.927 301.846C535.927 301.846 538.104 310.064 543.325 313.934C548.547 317.804 552.687 317.559 552.687 317.559L555.068 308.378C555.068 308.378 549.856 309.099 541.152 298.221Z" fill="#585858"/>
<path d="M395.659 181.444L404.85 184.841L402.894 189.996L394.876 184.165L395.659 181.444Z" fill="#585858"/>
<path d="M445.058 49.7578L451.81 55.4603L447.456 61.8938L442.316 53.9981L445.058 49.7578Z" fill="#585858"/>
<path d="M31.6117 110.648L22.2912 113.665L24.0328 118.894L32.2819 113.399L31.6117 110.648Z" fill="#585858"/>
<path d="M327.605 46.4731L324.203 50.1014C324.203 50.1014 324.489 52.519 327.605 56.6267C330.721 60.7344 335.136 63.6383 335.136 63.6383L340.64 58.7961C340.64 58.7961 330.044 54.9367 327.605 46.4731Z" fill="#585858"/>
<path d="M254.588 51.499L259.813 55.1238C259.813 55.1238 257.636 63.3426 252.411 67.2088C247.186 71.075 243.049 70.837 243.049 70.837L240.668 61.656C240.668 61.656 245.88 62.3735 254.588 51.499Z" fill="#585858"/>
<path d="M286.305 11.1841L279.709 18.4269L283.818 22.1027L288.251 13.2379L286.305 11.1841Z" fill="#585858"/>
<path d="M333.986 0L341.922 3.87984L339.273 11.1839L332.36 4.78094L333.986 0Z" fill="#585858"/>
<path d="M194.783 37.377L188.187 44.6198L192.297 48.2956L196.729 39.4308L194.783 37.377Z" fill="#585858"/>
<path d="M525.933 74.0942L539.345 83.5575L527.375 86.9443L518.333 76.4065L525.933 74.0942Z" fill="#585858"/>
<path d="M459.661 255.964C459.661 255.964 464.968 255.508 468.652 253.73C472.336 251.952 481.371 244.498 480.197 243.321C479.023 242.145 467.356 247.249 466.424 247.898C465.492 248.548 455.691 247.817 455.327 248.466C454.963 249.116 459.661 255.964 459.661 255.964Z" fill="#FFE7C0"/>
<path d="M390.145 293.837L428.24 249.554L439.618 266.488L399.761 336.233L390.145 293.837Z" fill="#FFE7C0"/>
<path d="M395.281 287.87C395.281 287.87 403.765 298.645 406.969 304.253C410.174 309.86 412.456 314.015 412.456 314.015L407.082 323.421L395.281 287.87Z" fill="#FFD180"/>
<path d="M454.889 254.624C454.889 254.624 465.529 255.532 467.135 255.852C468.74 256.171 478.649 251.924 479.472 252.791C481.398 254.784 471.89 259.708 469.267 260.296C466.645 260.884 453.504 259.956 453.504 259.956L454.889 254.624Z" fill="#FFE7C0"/>
<path d="M454.368 257.688C454.368 257.688 464.852 259.728 466.4 260.201C467.948 260.674 478.265 257.508 478.986 258.446C480.687 260.629 470.713 264.523 468.046 264.832C465.379 265.142 451.786 264.465 451.786 264.465L454.368 257.688Z" fill="#FFE7C0"/>
<path d="M446.721 261.459C446.721 261.459 458.92 263.285 460.478 263.744C462.036 264.203 471.363 261.704 472.104 262.636C473.846 264.788 463.195 267.998 460.539 268.352C457.882 268.705 444.864 266.631 444.864 266.631L446.721 261.459Z" fill="#FFD180"/>
<path d="M447.466 262.312C447.466 262.312 457.987 264.145 459.545 264.604C461.103 265.063 471.359 261.7 472.104 262.622C473.846 264.774 463.94 268.848 461.287 269.205C458.634 269.562 443.809 267.165 443.809 267.165L447.466 262.312Z" fill="#FFE7C0"/>
<path d="M428.24 249.558L442.224 243.495C442.224 243.495 466.124 249.102 466.604 249.275C467.084 249.449 468.92 253.39 468.92 253.39C468.92 253.39 463.43 255.77 455.287 256.11C452.946 256.202 454.834 264.839 452.718 265.794C447.718 268.056 441.619 266.954 439.615 266.505C434.213 265.274 428.24 249.558 428.24 249.558Z" fill="#FFE7C0"/>
<path d="M346.576 247.688C346.576 247.688 373.16 301.584 374.762 307.99L385.712 295.276L385.498 292.668L393.002 284.473C402.687 298.557 409.857 313.216 414.341 328.494C413.047 332.595 411.039 336.437 408.412 339.841C407.116 341.494 404.67 338.573 404.415 338.991C396.621 351.301 392.747 353.3 383.576 363.607C383.576 363.607 373.83 363.705 371.075 363.607C353.128 362.964 291.465 291.291 346.576 247.688Z" fill="#F27949"/>
<path d="M344.004 342.262C344.004 342.262 345.515 324.458 348.056 311.407C352.961 286.207 348.345 256.083 348.345 256.083L334.915 329.348L344.004 342.262Z" fill="#CE3030"/>
<path d="M272.321 224.028C272.321 224.028 229.46 228.941 222.316 238.796C218.741 243.723 214.299 254.097 215.081 279.818C216.169 315.522 220.34 363.651 220.34 363.651H330.938C330.938 363.651 331.221 344.248 339.637 324.414C350.91 297.837 350.41 267.053 347.338 248.585C346.256 242.077 310.535 231.148 310.535 231.148L272.321 224.028Z" fill="#F27949"/>
<path d="M287.931 256.468L290.37 256.906C292.784 257.338 295.26 257.291 297.656 256.767C300.051 256.243 302.32 255.252 304.333 253.852C306.346 252.451 308.063 250.668 309.386 248.604C310.71 246.54 311.613 244.235 312.046 241.822L322.591 182.931C323.464 178.058 322.365 173.037 319.536 168.974C316.707 164.911 312.379 162.137 307.504 161.264L305.065 160.828C302.652 160.396 300.176 160.442 297.781 160.966C295.385 161.49 293.117 162.48 291.104 163.881C289.091 165.281 287.375 167.064 286.052 169.128C284.729 171.192 283.825 173.496 283.393 175.909L272.848 234.8C272.415 237.213 272.462 239.687 272.986 242.082C273.509 244.477 274.5 246.745 275.9 248.757C277.301 250.769 279.084 252.485 281.148 253.808C283.213 255.131 285.518 256.035 287.931 256.468Z" fill="#FFE7C0"/>
<path d="M313.777 231.876L317.441 212.327L283.271 198.861C283.271 198.861 294.687 225.306 313.777 231.876Z" fill="#FFD180"/>
<path d="M267.606 225.912L275.6 217.883L297.17 247.776L314.627 226.065L318.281 232.114L324.523 240.071L301.361 272.776L269.3 261.075L264.885 234.477L267.606 225.912Z" fill="#F27949"/>
<path d="M374.044 309.381C373.168 309.688 372.395 310.232 371.809 310.953C371.224 311.673 370.85 312.541 370.728 313.461C370.303 316.654 371.711 320.708 371.711 320.708C371.711 320.708 371.333 313.322 374.044 309.381Z" fill="#CE3030"/>
<path d="M387.903 297.231C387.903 297.231 396.9 313.158 399.679 320.581C402.496 328.1 404.326 336.165 403.925 336.223C403.925 336.237 398.717 317.905 387.903 297.231Z" fill="#CE3030"/>
<path d="M348.685 136.128C348.685 136.128 360.383 189.143 342.195 212.909C324.006 236.674 286.22 219.029 274.896 180.074C254.17 108.813 330.299 74.9923 348.685 136.128Z" fill="#FFE7C0"/>
<path d="M325.782 166.717C327.557 170.458 329.238 174.229 330.68 178.095C331.306 179.768 332.908 182.927 332.235 184.763C331.384 187.082 327.625 186.464 325.771 186.004C325.711 185.988 325.647 185.983 325.585 185.991C325.522 185.999 325.462 186.019 325.407 186.05C325.352 186.081 325.304 186.122 325.265 186.172C325.226 186.222 325.198 186.279 325.181 186.339C325.164 186.4 325.16 186.464 325.168 186.526C325.175 186.589 325.195 186.649 325.226 186.704C325.258 186.759 325.299 186.807 325.349 186.845C325.399 186.884 325.455 186.913 325.516 186.929C329.833 188.038 334.214 187.025 332.911 181.829C331.551 176.449 328.979 171.209 326.598 166.214C326.333 165.657 325.503 166.146 325.768 166.7L325.782 166.717Z" fill="#3A3A3A"/>
<path d="M316.196 160.916C313.069 157.407 308.236 157.101 304.419 159.607C303.905 159.947 304.385 160.777 304.905 160.437C308.382 158.155 312.685 158.417 315.515 161.597C315.927 162.059 316.607 161.379 316.196 160.916Z" fill="black"/>
<path d="M311.145 164.182C311.447 162.598 310.407 161.068 308.821 160.767C307.236 160.465 305.706 161.505 305.404 163.09C305.102 164.674 306.143 166.204 307.728 166.505C309.314 166.807 310.843 165.767 311.145 164.182Z" fill="black"/>
<path d="M299.17 150.267C299.17 150.267 302.497 146.343 307.402 146.638C312.307 146.934 317.267 149.359 316.522 151.525C315.4 154.765 309.015 147.812 299.17 150.267Z" fill="black"/>
<path d="M351.798 150.528C351.798 150.528 349.131 147.128 344.994 147.22C340.858 147.311 336.619 149.185 337.17 151.025C338.038 153.782 343.61 148.151 351.798 150.528Z" fill="black"/>
<path d="M347.777 162.763C345.766 159.757 342.157 159.022 338.983 160.546C338.426 160.814 338.912 161.641 339.47 161.375C342.15 160.087 345.253 160.695 346.954 163.246C347.294 163.759 348.13 163.276 347.784 162.763H347.777Z" fill="black"/>
<path d="M342.987 165.908C342.855 166.588 342.458 167.187 341.884 167.574C341.31 167.961 340.605 168.104 339.926 167.972C339.589 167.907 339.269 167.776 338.983 167.586C338.698 167.397 338.452 167.153 338.261 166.869C338.069 166.585 337.936 166.266 337.868 165.93C337.8 165.594 337.799 165.248 337.864 164.912C337.997 164.233 338.394 163.634 338.968 163.247C339.542 162.86 340.246 162.716 340.926 162.848C341.605 162.981 342.203 163.378 342.59 163.952C342.976 164.526 343.119 165.229 342.987 165.908Z" fill="black"/>
<path d="M269.011 116.718C269.011 116.718 257.517 113.09 248.962 127.627C243.498 136.906 244.199 152.201 254.176 169.06C260.218 179.261 278.563 196.202 279.896 192.863C281.23 189.524 279.876 153.711 279.876 153.711L269.011 116.718Z" fill="black"/>
<path d="M288.237 168.795C288.8 162.167 283.881 156.338 277.25 155.776C270.62 155.214 264.789 160.131 264.226 166.759C263.664 173.387 268.583 179.216 275.213 179.778C281.844 180.34 287.675 175.423 288.237 168.795Z" fill="#FFE7C0"/>
<path d="M276.515 155.734C276.515 155.734 279.668 167.153 282.771 170.849C285.679 174.314 288.894 179.146 290.802 153.538C291.653 142.164 286.921 128.599 298.429 126.77C313.899 124.312 322.257 137.066 336.051 141.443C359.125 148.767 380.018 142.14 378.035 141.443C365.214 136.941 362.867 124.393 362.867 124.393C362.867 124.393 388.131 103.991 381.453 106.429C376.752 108.129 355.815 104.338 355.815 104.338C355.815 104.338 364.414 83.2553 359.608 86.9345C354.396 90.9299 335.017 95.8095 321.169 92.1133C310.124 89.1685 294.122 82.718 279.478 92.3819C263.357 103.022 267.065 116.79 267.065 116.79L276.515 155.734Z" fill="black"/>
<g opacity="0.2">
<path d="M290.482 112.679C298.857 107.918 309.018 110.56 317.138 114.348C326.479 118.704 336.429 125.699 347.216 124.76C347.828 124.706 347.831 123.74 347.216 123.798C334.776 124.883 323.591 115.589 312.518 111.312C305.582 108.632 296.707 108.02 289.999 111.846C289.895 111.913 289.821 112.018 289.792 112.139C289.764 112.26 289.783 112.387 289.845 112.494C289.908 112.601 290.009 112.68 290.129 112.714C290.248 112.749 290.376 112.736 290.486 112.679H290.482Z" fill="#040404"/>
</g>
<g opacity="0.2">
<path d="M290.666 106.667C297.684 101.274 307.413 101.78 315.42 104.086C325.965 107.119 337.371 113.43 348.634 110.887C349.236 110.751 348.974 109.822 348.379 109.958C335.391 112.896 322.689 104.001 310.222 101.838C303.64 100.696 295.65 101.637 290.183 105.837C289.697 106.211 290.183 107.044 290.666 106.67V106.667Z" fill="#040404"/>
</g>
<g opacity="0.2">
<path d="M270.572 127.929C267.596 132.958 268.082 139.236 270.705 144.251C270.991 144.802 271.821 144.316 271.535 143.768C269.076 139.066 268.613 133.125 271.402 128.416C271.454 128.307 271.462 128.182 271.426 128.067C271.391 127.952 271.313 127.855 271.209 127.794C271.105 127.733 270.982 127.713 270.865 127.738C270.747 127.763 270.643 127.831 270.572 127.929Z" fill="#040404"/>
</g>
<path d="M308.807 180.808C305.273 180.805 301.884 179.4 299.385 176.901C296.885 174.403 295.48 171.016 295.476 167.482C295.481 163.95 296.887 160.563 299.386 158.066C301.885 155.568 305.273 154.163 308.807 154.16C312.341 154.164 315.728 155.569 318.226 158.067C320.725 160.564 322.13 163.95 322.135 167.482C322.131 171.015 320.726 174.402 318.228 176.9C315.729 179.398 312.341 180.804 308.807 180.808ZM308.807 155.442C305.613 155.444 302.551 156.714 300.292 158.971C298.033 161.228 296.762 164.289 296.758 167.482C296.762 170.676 298.033 173.737 300.291 175.995C302.55 178.253 305.613 179.523 308.807 179.527C312 179.52 315.059 178.249 317.315 175.991C319.571 173.733 320.84 170.674 320.842 167.482C320.84 164.292 319.571 161.232 317.315 158.975C315.059 156.718 311.999 155.447 308.807 155.442Z" fill="#3A3A3A"/>
<path d="M344.467 181.101C340.933 181.097 337.545 179.693 335.046 177.195C332.546 174.697 331.14 171.311 331.136 167.778C331.139 164.245 332.545 160.858 335.044 158.359C337.544 155.861 340.932 154.456 344.467 154.452C348.001 154.457 351.389 155.862 353.887 158.36C356.386 160.859 357.791 164.246 357.795 167.778C357.79 171.31 356.385 174.696 353.886 177.194C351.388 179.691 348 181.096 344.467 181.101ZM344.467 155.734C341.271 155.735 338.206 157.004 335.945 159.262C333.684 161.52 332.412 164.583 332.408 167.778C332.412 170.971 333.683 174.031 335.942 176.289C338.201 178.546 341.263 179.815 344.457 179.819C347.65 179.815 350.712 178.546 352.97 176.288C355.228 174.031 356.498 170.971 356.502 167.778C356.499 164.587 355.231 161.527 352.975 159.27C350.719 157.012 347.659 155.74 344.467 155.734Z" fill="#3A3A3A"/>
<path d="M321.805 165.963L321.186 164.841C321.438 164.701 327.445 161.44 332.156 164.881L331.401 165.902C327.343 162.967 321.863 165.932 321.805 165.963Z" fill="#3A3A3A"/>
<path d="M296.656 164.78L276.879 155.112C276.049 154.708 275.318 155.949 276.151 156.357L295.928 166.024C296.758 166.429 297.49 165.188 296.656 164.78Z" fill="#3A3A3A"/>
<path d="M255.19 130.075C255.19 130.075 246.421 146.526 252.186 166.551C257.952 186.576 258.228 194.295 258.228 194.295C259.84 193.826 264.167 184.859 262.725 177.089C261.283 169.319 255.19 130.075 255.19 130.075Z" fill="black"/>
<path d="M258.309 122.264C258.309 122.264 246.665 127.599 246.21 139.848C245.754 152.096 240.165 172.151 240.165 172.151C240.165 172.151 253.537 164.33 254.666 158.529C255.796 152.728 258.309 122.264 258.309 122.264Z" fill="black"/>
<path d="M272.433 116.317C272.433 116.317 264.64 108.078 256.629 111.924C248.618 115.769 233.79 118.684 233.79 118.684C233.79 118.684 244.206 128.205 251.156 128.174C258.105 128.143 272.433 116.317 272.433 116.317Z" fill="black"/>
<path d="M291.03 128.164C291.03 128.164 304.463 122.74 311.872 132.418C323.904 148.134 334.449 147.206 334.449 147.206C334.449 147.206 329.792 141.041 329.234 135.794C328.676 130.547 296.255 114.416 291.03 128.164Z" fill="black"/>
<path d="M283.271 93.609C283.271 93.609 291.932 86.8729 303.681 86.5022C315.43 86.1316 325.656 80.793 325.656 80.793C325.656 80.793 325.656 94.2483 319.91 96.1729C314.165 98.0975 283.271 93.609 283.271 93.609Z" fill="black"/>
<g opacity="0.2">
<path d="M265.317 126.093C262.517 127.821 260.578 132.448 259.534 135.332C256.901 142.599 258.115 150.066 262.034 156.622C262.102 156.726 262.207 156.8 262.328 156.829C262.448 156.857 262.576 156.838 262.683 156.776C262.79 156.713 262.869 156.612 262.903 156.493C262.938 156.373 262.925 156.246 262.868 156.136C259.071 149.784 257.908 142.622 260.459 135.587C261.405 132.982 263.269 128.484 265.803 126.923C266.327 126.583 265.844 125.767 265.317 126.093Z" fill="#040404"/>
</g>
<path d="M283.087 256.1L291.605 268.076L297.605 268.862L308.185 252.421L303.694 251.18L301.215 253.577L295.401 260.041L291.605 256.243L285.53 251.782L283.087 256.1Z" fill="#A32828"/>
<path d="M298.589 256.498L303.011 249.932C305.172 250.171 307.273 250.792 309.215 251.768C310.481 252.436 311.583 253.378 312.439 254.525C313.295 255.672 313.885 256.995 314.165 258.399C314.165 258.399 318.349 255.536 319.505 247.256C320.601 239.435 319.005 233.923 319.005 233.923C319.005 233.923 321.944 239.411 320.39 249.303C319.06 257.773 313.587 261.724 313.587 261.724C313.587 261.724 312.427 256.484 309.889 254.203C307.654 252.193 303.912 251.68 303.912 251.68L298.589 256.498Z" fill="#CE3030"/>
<path d="M291.588 256.243L285.945 249.218C285.945 249.218 283.972 250.598 282.359 253.581C280.441 257.124 280.005 258.426 280.005 258.426C280.005 258.426 274.324 253.788 270.481 244.345C266.844 235.412 267.596 228.363 267.596 228.363C267.596 228.363 264.99 236.109 269.725 247.341C273.78 256.957 281.601 262.35 281.601 262.35C281.708 260.195 282.212 258.079 283.087 256.107C283.802 254.614 284.616 253.171 285.526 251.789L291.588 256.243Z" fill="#CE3030"/>
<path d="M298.589 273.313C298.589 273.313 296.405 288.914 298.296 324.713C299.534 348.149 303.133 363.498 303.133 363.498H273.971C273.971 363.498 276.352 332.691 279.669 315.403C283.842 293.688 289.993 271.538 289.993 271.538L298.589 273.313Z" fill="#A32828"/>
<path d="M284.849 260.191C284.849 260.191 287.676 257.783 294.272 258.181C300.868 258.579 304.603 260.191 304.603 260.191C304.603 260.191 300.66 273.534 298.762 274.472C296.864 275.411 289.173 274.472 288.853 273.792C288.533 273.112 284.278 262.054 284.849 260.191Z" fill="#891F1F"/>
<path d="M294.228 276.309C294.228 276.309 284.883 305.3 286.523 313.873C288.162 322.445 290.2 317.239 290.2 317.239C290.2 317.239 288.39 317.753 288.043 312.053C287.696 306.354 294.228 276.309 294.228 276.309Z" fill="#891F1F"/>
<path d="M470.383 259.715C470.383 259.715 466.876 260.15 465.726 260.017C464.903 259.922 458.09 258.854 458.09 258.854V259.858C458.09 259.858 464.015 260.17 464.924 260.323C465.832 260.476 470.383 259.715 470.383 259.715Z" fill="#FFD180"/>
<path d="M462.423 255.338L457.739 254.505L457.902 253.825C457.902 253.825 460.695 254.393 462.423 255.338Z" fill="#FFD180"/>
<path d="M428.24 249.473C428.24 249.473 435.166 238.905 438.669 238.772C442.173 238.639 453.671 234.205 453.81 236.691C453.95 239.177 445.541 244.648 443.435 245.916C441.33 247.184 431.829 251.279 428.24 249.473Z" fill="#FFE7C0"/>
<path d="M225.102 240.907C225.102 240.907 231.191 248.959 233.753 257.307C236.314 265.655 237.233 271.249 237.233 271.249C237.233 271.249 238.563 252.197 225.102 240.907Z" fill="#CE3030"/>
<path d="M309.433 293.705C309.433 293.705 319.172 298.024 326.635 297.847C334.099 297.67 336.5 294.508 336.5 294.508C336.5 294.508 334.075 316.171 332.418 319.099C330.762 322.027 322.894 325.9 321.438 326.005C319.982 326.111 312.709 319.657 312.709 319.657C312.709 319.657 319.529 327.209 321.468 327.345C323.407 327.481 332.17 322.336 333.609 319.63C335.65 315.787 337.575 292.294 337.575 292.294C337.575 292.294 332.714 297.099 325.986 296.51C318.873 295.892 308.559 292.328 308.559 292.328L308.841 298.302L309.433 293.705Z" fill="#CE3030"/>
<path d="M329.221 196.6L311.318 193.081C311.318 193.081 312.042 202.734 319.679 204.414C327.316 206.094 329.221 196.6 329.221 196.6Z" fill="#FF9797"/>
<path d="M216.751 314.675L226.038 300.081C226.038 300.081 223.963 310.095 222.69 315.722C221.418 321.35 217.68 328.953 217.68 328.953L216.751 314.675Z" fill="#CE3030"/>
<path d="M112.833 209.27C112.833 209.27 107.976 207.09 105.084 204.193C102.193 201.296 96.1313 191.272 97.628 190.561C99.1247 189.85 108.449 198.504 109.112 199.426C109.775 200.347 119.273 202.891 119.402 203.625C119.531 204.36 112.833 209.27 112.833 209.27Z" fill="#FFE7C0"/>
<path d="M165.937 267.967L144.608 213.595L128.277 225.823L142.853 304.814L165.937 267.967Z" fill="#FFE7C0"/>
<path d="M163.059 260.64C163.059 260.64 151.494 268.012 146.612 272.245C141.731 276.479 138.207 279.651 138.207 279.651L140.173 290.301L163.059 260.64Z" fill="#FFD180"/>
<path d="M117.78 209.58C117.78 209.58 107.435 206.924 105.829 206.703C104.224 206.482 96.2571 199.195 95.1958 199.729C92.7228 200.973 100.07 208.76 102.339 210.178C104.608 211.596 117.334 215.058 117.334 215.058L117.78 209.58Z" fill="#FFE7C0"/>
<path d="M117.259 212.647C117.259 212.647 106.693 211.096 105.071 211.045C103.448 210.994 94.7604 204.584 93.7637 205.23C91.4369 206.73 99.5465 213.697 101.975 214.87C104.404 216.044 117.446 219.893 117.446 219.893L117.259 212.647Z" fill="#FFE7C0"/>
<path d="M123.236 218.716C123.236 218.716 111.116 216.414 109.496 216.336C107.877 216.258 99.8969 210.824 98.8866 211.45C96.5327 212.908 105.523 219.451 107.915 220.665C110.306 221.879 123.28 224.215 123.28 224.215L123.236 218.716Z" fill="#FFD180"/>
<path d="M122.246 219.294C122.246 219.294 111.701 217.553 110.088 217.472C108.476 217.39 99.8833 210.828 98.8866 211.453C96.5326 212.912 104.533 220.026 106.925 221.239C109.316 222.453 124.096 225.075 124.096 225.075L122.246 219.294Z" fill="#FFE7C0"/>
<path d="M144.609 213.595L133.41 203.255C133.41 203.255 108.996 200.657 108.49 200.65C107.983 200.643 104.945 203.765 104.945 203.765C104.945 203.765 109.337 207.845 116.915 210.834C119.096 211.698 114.456 219.226 116.136 220.828C120.113 224.612 126.236 225.588 128.274 225.823C133.778 226.462 144.609 213.595 144.609 213.595Z" fill="#FFE7C0"/>
<path d="M222.306 238.795C222.306 238.795 179.408 280.889 175.778 286.401L169.655 270.783L170.716 268.403L166.342 258.201C152.548 268.297 140.935 279.767 131.645 292.709C131.514 297.006 132.139 301.293 133.492 305.375C134.172 307.364 137.438 305.412 137.547 305.895C140.836 320.082 152.915 345.472 163.059 345.098C181.006 344.428 257.51 312.271 222.306 238.795Z" fill="#F27949"/>
<path d="M175.996 287.955C176.719 288.533 177.269 289.299 177.585 290.169C177.901 291.039 177.97 291.979 177.785 292.886C177.132 296.041 174.462 299.401 174.462 299.401C174.462 299.401 177.254 292.569 175.996 287.955Z" fill="#CE3030"/>
<path d="M166.93 271.915C166.93 271.915 153.174 283.976 148.099 290.066C142.955 296.231 138.574 303.243 138.914 303.44C138.918 303.44 149.895 287.846 166.93 271.915Z" fill="#CE3030"/>
<path d="M101.475 209.27C101.475 209.27 104.639 210.841 105.768 211.093C106.578 211.276 113.361 212.517 113.361 212.517L113.021 213.466C113.021 213.466 107.323 211.803 106.415 211.647C105.506 211.49 101.475 209.27 101.475 209.27Z" fill="#FFD180"/>
<path d="M110.435 207.753L115.133 208.515L115.211 207.804C115.211 207.804 112.374 207.447 110.435 207.753Z" fill="#FFD180"/>
<path d="M144.636 213.514C144.636 213.514 141.574 201.252 138.326 199.97C135.077 198.688 125.678 190.707 124.719 193.006C123.76 195.305 129.896 203.248 131.464 205.139C133.033 207.029 140.652 214.037 144.636 213.514Z" fill="#FFE7C0"/>
<path d="M418.969 260.449L435.936 274.495C436.894 275.288 438.313 275.154 439.106 274.197L440.471 272.55C441.264 271.592 441.131 270.173 440.173 269.38L423.207 255.335C422.249 254.542 420.829 254.675 420.036 255.633L418.671 257.28C417.878 258.237 418.011 259.656 418.969 260.449Z" fill="#424242"/>
<path d="M130.372 203.768C130.367 205.358 130.445 206.947 130.607 208.529C130.815 210.909 131.094 212.551 131.094 212.551C131.094 212.551 128.835 206.907 130.372 203.768Z" fill="#FFD180"/>
<path d="M445.973 245.001C445.314 246.444 444.579 247.852 443.772 249.217C442.581 251.298 441.646 252.669 441.646 252.669C441.646 252.669 446.054 248.493 445.973 245.001Z" fill="#FFD180"/>
<path d="M42.6468 401.225H206.104L206.913 274.139L42.6468 273.51V401.225Z" fill="#828282"/>
<path d="M44.3442 399.763H204.842L204.842 275.183H44.3442L44.3442 399.763Z" fill="#040404"/>
<path d="M44.1673 287.289H206.478V274.741H44.1673V287.289Z" fill="#828282"/>
<path d="M53.9165 283.109C55.0738 283.109 56.0119 282.171 56.0119 281.015C56.0119 279.858 55.0738 278.92 53.9165 278.92C52.7592 278.92 51.8211 279.858 51.8211 281.015C51.8211 282.171 52.7592 283.109 53.9165 283.109Z" fill="#040404"/>
<path d="M61.4478 283.109C62.6051 283.109 63.5432 282.171 63.5432 281.015C63.5432 279.858 62.6051 278.92 61.4478 278.92C60.2905 278.92 59.3524 279.858 59.3524 281.015C59.3524 282.171 60.2905 283.109 61.4478 283.109Z" fill="#040404"/>
<path d="M69.0505 283.109C70.2078 283.109 71.146 282.171 71.146 281.015C71.146 279.858 70.2078 278.92 69.0505 278.92C67.8933 278.92 66.9551 279.858 66.9551 281.015C66.9551 282.171 67.8933 283.109 69.0505 283.109Z" fill="#040404"/>
<path d="M125.028 343.837C126.359 350.159 125.703 356.738 123.151 362.673C120.6 368.609 116.276 373.611 110.772 376.998C103.69 381.353 95.1669 382.718 87.0778 380.793C78.9888 378.867 71.9964 373.808 67.6388 366.728C63.2825 359.649 61.9174 351.13 63.8439 343.045C65.7705 334.96 70.8308 327.971 77.9119 323.615C83.3743 320.241 89.7452 318.634 96.155 319.014L94.342 350.298L125.028 343.837Z" fill="#F27949"/>
<path d="M122.865 324.047L97.7572 342.82L99.5738 311.537C104.134 311.798 108.582 313.053 112.605 315.214C116.629 317.375 120.13 320.39 122.865 324.047Z" fill="#CE3030"/>
<path d="M126.893 330.201C128.654 333.343 129.859 336.766 130.454 340.318L99.5261 345.493L125.379 327.787C125.921 328.562 126.425 329.367 126.893 330.201Z" fill="#C15959"/>
<path d="M162.086 337.729H146.336V341.399H162.086V337.729Z" fill="#C15959"/>
<path d="M166.682 331.439H146.337V335.108H166.682V331.439Z" fill="#CE3030"/>
<path d="M186.589 324.89H146.337V328.559H186.589V324.89Z" fill="#F27949"/>
<path d="M85.6541 296.377H63.5432V299.006H85.6541V296.377Z" fill="#7F7F7F"/>
<path d="M100.768 300.73H63.5432V303.358H100.768V300.73Z" fill="#7F7F7F"/>
<path d="M543.053 529.78H24.8696V534H543.053V529.78Z" fill="black"/>
<path d="M174.411 357.432H393.512C396.973 357.432 400.292 358.806 402.739 361.252C405.186 363.698 406.561 367.016 406.561 370.476V515.159H161.362V370.476C161.362 367.016 162.736 363.698 165.184 361.252C167.631 358.806 170.95 357.432 174.411 357.432Z" fill="#424242"/>
<path d="M396.404 370.261H171.516V501.275H396.404V370.261Z" fill="#040404"/>
<path d="M142.942 512.931H424.777V516.542C424.777 518.281 424.435 520.002 423.77 521.609C423.105 523.215 422.129 524.675 420.899 525.904C419.669 527.133 418.209 528.108 416.603 528.773C414.996 529.438 413.273 529.781 411.534 529.78H156.181C154.442 529.78 152.721 529.438 151.114 528.773C149.508 528.108 148.049 527.133 146.819 525.904C145.59 524.675 144.615 523.216 143.949 521.61C143.284 520.005 142.942 518.284 142.942 516.546V512.935V512.931Z" fill="#424242"/>
<path d="M239.784 512.931H327.921V513.207C327.921 514.312 327.482 515.373 326.7 516.154C325.918 516.936 324.857 517.375 323.751 517.375H243.954C242.848 517.375 241.787 516.936 241.005 516.154C240.223 515.373 239.784 514.312 239.784 513.207V512.931Z" fill="#212121"/>
<path d="M406.561 512.377H161.362V512.931H406.561V512.377Z" fill="black"/>
<path d="M387.927 378.837H179.792V497.045H387.927V378.837Z" fill="#585858"/>
<path d="M388.029 375.215H179.894V384.631H388.029V375.215Z" fill="#8C8C8C"/>
<path d="M187.949 379.925C187.949 380.155 187.904 380.382 187.816 380.594C187.728 380.806 187.599 380.999 187.437 381.161C187.275 381.323 187.082 381.452 186.87 381.54C186.658 381.628 186.43 381.673 186.201 381.673C185.971 381.673 185.744 381.628 185.532 381.54C185.319 381.452 185.127 381.323 184.964 381.161C184.802 380.999 184.673 380.806 184.585 380.594C184.497 380.382 184.452 380.155 184.452 379.925C184.452 379.462 184.636 379.017 184.964 378.689C185.292 378.361 185.737 378.177 186.201 378.177C186.664 378.177 187.109 378.361 187.437 378.689C187.765 379.017 187.949 379.462 187.949 379.925Z" fill="#040404"/>
<path d="M194.236 379.925C194.236 380.155 194.19 380.382 194.102 380.594C194.015 380.806 193.886 380.999 193.723 381.161C193.561 381.323 193.368 381.452 193.156 381.54C192.944 381.628 192.717 381.673 192.487 381.673C192.257 381.673 192.03 381.628 191.818 381.54C191.606 381.452 191.413 381.323 191.251 381.161C191.088 380.999 190.96 380.806 190.872 380.594C190.784 380.382 190.739 380.155 190.739 379.925C190.739 379.462 190.923 379.017 191.251 378.689C191.579 378.361 192.023 378.177 192.487 378.177C192.951 378.177 193.395 378.361 193.723 378.689C194.051 379.017 194.236 379.462 194.236 379.925Z" fill="#040404"/>
<path d="M200.58 379.925C200.58 380.155 200.534 380.382 200.447 380.594C200.359 380.806 200.23 380.999 200.068 381.161C199.905 381.323 199.712 381.452 199.5 381.54C199.288 381.628 199.061 381.673 198.831 381.673C198.602 381.673 198.374 381.628 198.162 381.54C197.95 381.452 197.757 381.323 197.595 381.161C197.432 380.999 197.304 380.806 197.216 380.594C197.128 380.382 197.083 380.155 197.083 379.925C197.083 379.462 197.267 379.017 197.595 378.689C197.923 378.361 198.367 378.177 198.831 378.177C199.295 378.177 199.74 378.361 200.068 378.689C200.395 379.017 200.58 379.462 200.58 379.925Z" fill="#040404"/>
<path d="M217.38 442.414H210.434V487.374H217.38V442.414Z" fill="#F27949"/>
<path d="M233.702 433.712H226.755V487.374H233.702V433.712Z" fill="#F27949"/>
<path d="M248.55 423.804H241.604V487.377H248.55V423.804Z" fill="#F27949"/>
<path d="M264.092 399.389H257.146V487.377H264.092V399.389Z" fill="#F27949"/>
<path d="M279.985 413.167H273.039V487.377H279.985V413.167Z" fill="#F27949"/>
<path d="M295.371 427.187H288.424V487.377H295.371V427.187Z" fill="#F27949"/>
<path d="M310.243 436.293H303.296V487.377H310.243V436.293Z" fill="#F27949"/>
<path d="M324.509 427.187H317.563V487.377H324.509V427.187Z" fill="#F27949"/>
<path d="M338.657 411.474H331.711V487.374H338.657V411.474Z" fill="#F27949"/>
<path d="M352.924 399.389H345.977V487.377H352.924V399.389Z" fill="#F27949"/>
<path d="M200.58 464.898C200.58 464.898 238.988 430.574 260.616 430.574C282.244 430.574 288.533 449.426 307.637 449.426C326.741 449.426 362.285 406.656 362.285 406.656C362.285 406.656 329.741 450.891 308.12 450.891C286.499 450.891 280.822 432.278 260.616 432.278C240.41 432.278 200.58 464.898 200.58 464.898Z" fill="#424242"/>
<path d="M509.312 422.715H372.878L372.201 316.637L509.312 316.113V422.715Z" fill="#828282"/>
<path d="M507.893 317.511H373.932V421.495H507.893V317.511Z" fill="#040404"/>
<path d="M508.04 317.144H372.565V327.617H508.04V317.144Z" fill="#828282"/>
<path d="M399.39 352.375V400.477C399.39 400.477 397.7 371.713 399.39 352.375Z" fill="#7F7F7F"/>
<path d="M399.989 400.827H485.483C485.483 400.827 434.363 402.521 399.989 400.827Z" fill="#7F7F7F"/>
<path d="M402.238 399.239V390.701L415.456 377.664L421.624 381.108L434.047 370.775L446.037 377.177L449.756 373.658L455.014 375.926L470.067 360.985L479.588 371.077V399.239H402.238Z" fill="#F27949"/>
<path d="M395.962 391.078H391.699V392.346H395.962V391.078Z" fill="#7F7F7F"/>
<path d="M395.961 381.744H391.699V383.012H395.961V381.744Z" fill="#7F7F7F"/>
<path d="M395.961 372.407H391.699V373.675H395.961V372.407Z" fill="#7F7F7F"/>
<path d="M395.961 363.069H391.699V364.338H395.961V363.069Z" fill="#7F7F7F"/>
<path d="M458.729 336.781H423.093V339.41H458.729V336.781Z" fill="#7F7F7F"/>
<path d="M443.656 341.133H423.093V343.762H443.656V341.133Z" fill="#7F7F7F"/>
<path d="M411.476 405.554H407.214V406.822H411.476V405.554Z" fill="#7F7F7F"/>
<path d="M423.688 405.554H419.426V406.822H423.688V405.554Z" fill="#7F7F7F"/>
<path d="M436.489 405.554H432.227V406.822H436.489V405.554Z" fill="#7F7F7F"/>
<path d="M448.701 405.554H444.439V406.822H448.701V405.554Z" fill="#7F7F7F"/>
<path d="M462.087 405.554H457.824V406.822H462.087V405.554Z" fill="#7F7F7F"/>
<path d="M474.299 405.554H470.036V406.822H474.299V405.554Z" fill="#7F7F7F"/>
<path d="M415.807 344.017C417.806 344.017 419.426 342.397 419.426 340.399C419.426 338.401 417.806 336.781 415.807 336.781C413.808 336.781 412.188 338.401 412.188 340.399C412.188 342.397 413.808 344.017 415.807 344.017Z" fill="#7F7F7F"/>
<path d="M383.358 322.381C383.358 322.61 383.313 322.837 383.225 323.049C383.137 323.261 383.008 323.454 382.846 323.616C382.684 323.779 382.491 323.908 382.279 323.995C382.067 324.083 381.839 324.128 381.61 324.128C381.38 324.128 381.153 324.083 380.941 323.995C380.729 323.908 380.536 323.779 380.373 323.616C380.211 323.454 380.082 323.261 379.994 323.049C379.907 322.837 379.861 322.61 379.861 322.381C379.861 322.151 379.907 321.924 379.994 321.712C380.082 321.5 380.211 321.307 380.373 321.145C380.536 320.982 380.729 320.854 380.941 320.766C381.153 320.678 381.38 320.633 381.61 320.633C381.839 320.633 382.067 320.678 382.279 320.766C382.491 320.854 382.684 320.982 382.846 321.145C383.008 321.307 383.137 321.5 383.225 321.712C383.313 321.924 383.358 322.151 383.358 322.381Z" fill="#040404"/>
<path d="M389.645 322.381C389.645 322.844 389.46 323.289 389.132 323.616C388.804 323.944 388.36 324.128 387.896 324.128C387.432 324.128 386.988 323.944 386.66 323.616C386.332 323.289 386.148 322.844 386.148 322.381C386.148 322.151 386.193 321.924 386.281 321.712C386.369 321.5 386.497 321.307 386.66 321.145C386.822 320.982 387.015 320.854 387.227 320.766C387.439 320.678 387.666 320.633 387.896 320.633C388.126 320.633 388.353 320.678 388.565 320.766C388.777 320.854 388.97 320.982 389.132 321.145C389.295 321.307 389.424 321.5 389.511 321.712C389.599 321.924 389.645 322.151 389.645 322.381Z" fill="#040404"/>
<path d="M395.989 322.381C395.989 322.844 395.804 323.289 395.477 323.616C395.149 323.944 394.704 324.128 394.24 324.128C393.776 324.128 393.332 323.944 393.004 323.616C392.676 323.289 392.492 322.844 392.492 322.381C392.492 322.151 392.537 321.924 392.625 321.712C392.713 321.5 392.841 321.307 393.004 321.145C393.166 320.982 393.359 320.854 393.571 320.766C393.783 320.678 394.011 320.633 394.24 320.633C394.47 320.633 394.697 320.678 394.909 320.766C395.121 320.854 395.314 320.982 395.477 321.145C395.639 321.307 395.768 321.5 395.856 321.712C395.943 321.924 395.989 322.151 395.989 322.381Z" fill="#040404"/>
<path d="M110.867 487.996C110.867 487.996 101.434 461.885 122.151 449.161C133.505 442.186 151.432 446.012 151.432 446.012C151.432 446.012 137.485 452.622 134.233 471.052C132.417 481.315 119.3 486.459 110.867 487.996Z" fill="#F27949"/>
<path d="M104.207 478.649C104.207 478.649 117.371 454.203 98.7471 438.572C88.5421 430.01 70.2445 431.162 70.2445 431.162C70.2445 431.162 83.0654 439.745 83.5825 458.454C83.8716 468.883 96.0904 475.894 104.207 478.649Z" fill="#C63434"/>
<path d="M91.7771 446.498C91.7771 446.498 101.343 457.658 104.931 477.85C108.52 498.041 107.54 510.793 107.54 510.793C107.54 510.793 107.557 469.498 91.7771 446.498Z" fill="#F27949"/>
<path d="M122.015 468.114C122.015 468.114 113.395 475.84 110.163 489.819C106.932 503.798 107.813 512.629 107.813 512.629C107.813 512.629 107.813 484.038 122.015 468.114Z" fill="#C63434"/>
<path d="M95.2774 530.039H120.096L125.838 504.288H90.1511L95.2774 530.039Z" fill="#B7B7B7"/>
<path d="M86.9638 504.288H129.022V494.733H86.9638V504.288Z" fill="#757575"/>
</g>
<defs>
<clipPath id="clip0_1_35">
<rect width="557" height="534" fill="white"/>
</clipPath>
</defs>
</svg>
